<?xml version="1.0" encoding="UTF-8"?>
<svg id="Layer_1" data-name="Layer 1" xmlns="http://www.w3.org/2000/svg" viewBox="0 0 254.46 254.46">
  <defs>
    <style>
      .cls-1 {
        stroke-width: 1.83px;
      }

      .cls-1, .cls-2, .cls-3, .cls-4, .cls-5, .cls-6, .cls-7, .cls-8 {
        fill: none;
        stroke: #422511;
        stroke-linecap: round;
        stroke-linejoin: round;
      }

      .cls-2 {
        stroke-width: 2.84px;
      }

      .cls-3 {
        stroke-width: 2.31px;
      }

      .cls-9 {
        font-size: 52.9px;
      }

      .cls-9, .cls-10, .cls-11 {
        fill: #422511;
        font-family: Cookie-Regular, Cookie;
      }

      .cls-4 {
        stroke-width: 2.64px;
      }

      .cls-10 {
        font-size: 32.28px;
      }

      .cls-12 {
        fill: #fcbf8a;
      }

      .cls-5 {
        stroke-width: 2.69px;
      }

      .cls-11 {
        font-size: 77.34px;
      }

      .cls-6 {
        stroke-width: 1.79px;
      }

      .cls-7 {
        stroke-width: 1.81px;
      }

      .cls-8 {
        stroke-width: 2.96px;
      }
    </style>
  </defs>
  <g>
    <g>
      <path class="cls-12" d="M144.85,221.35s21.1-.29,28.82-.25c7.18.04,44.78.63,50.07.72.7.01,1.4-.06,2.08-.24,1.04-.28,2.24-.84,2.23-1.98-.06-4.02-16.2-6.83-27.32-7.29-11.11-.47-22.31,4.06-29.06,4.32-6.76.27-18.63-1.53-18.63-1.53"/>
      <path class="cls-7" d="M146.55,221.96s19.4-.9,27.12-.86c7.18.04,44.78.63,50.07.72.7.01,1.4-.06,2.08-.24,1.04-.28,2.24-.84,2.23-1.98-.06-4.02-16.2-6.83-27.32-7.29-11.11-.47-22.31,4.06-29.06,4.32-6.76.27-18.05-.77-18.05-.77"/>
    </g>
    <text class="cls-11" transform="translate(23.68 222.93)"><tspan x="0" y="0">Menu</tspan></text>
    <text class="cls-9" transform="translate(156.76 207.53)"><tspan x="0" y="0">Hub</tspan></text>
    <text class="cls-10" transform="translate(75.44 186.39)"><tspan x="0" y="0">Syrian</tspan></text>
  </g>
  <g>
    <g>
      <path class="cls-12" d="M189.76,125.56c-12.71,6.16-19.44,27.46-19.44,27.46l16.61,4s-8.33-19.59,2.84-31.46Z"/>
      <path class="cls-12" d="M71.32,125.56c10.92,6.24,19.35,30.83,19.35,30.83l-16.04,2.48s7.61-25.05-3.31-33.32Z"/>
      <g>
        <path class="cls-12" d="M171.28,45c.2-.11.4-.21.6-.32-.49-.96-1.01-1.89-1.56-2.8.35,1.02.68,2.06.96,3.12Z"/>
        <path class="cls-12" d="M190.98,39.77c-6.9,0-15.21,2.84-20.92,5.96,1.37,2.69,2.8,5.62,3.59,8.62,5.85-3.33,14.07-6.36,21.22-6.36,14.61,0,27.43,7.93,34.7,19.85-5.71-16.37-20.83-28.07-38.59-28.07Z"/>
        <path class="cls-12" d="M131.76,13.74c-18.89,0-34.75,13.25-39.52,31.26-5.85-3.33-12.56-5.23-19.7-5.23-22.66,0-41.02,19.04-41.02,42.53,0,8.34,2.33,16.11,6.33,22.68-1.57-4.51-2.44-9.38-2.44-14.46,0-23.49,18.37-42.53,41.02-42.53,7.14,0,13.85,1.9,19.7,5.23,4.77-18.01,20.63-31.26,39.52-31.26,14.63,0,27.42,7.97,34.67,19.92-5.69-16.4-20.78-28.14-38.56-28.14Z"/>
      </g>
      <path class="cls-2" d="M184.74,155.99c-4.81-20.13,5.02-30.43,5.02-30.43,22.66,0,41.02-19.04,41.02-42.53s-18.37-42.53-41.02-42.53c-7.14,0-13.85,1.9-19.7,5.23-4.77-18.01-20.63-31.26-39.52-31.26s-34.75,13.25-39.52,31.26c-5.85-3.33-12.56-5.23-19.7-5.23-22.66,0-41.02,19.04-41.02,42.53s18.37,42.53,41.02,42.53c0,0,9.52,5.69,4.63,30.83"/>
      <g>
        <g>
          <g>
            <path class="cls-12" d="M153.74,162.69l-2.04-18.61-1.19.19-1.67-38.02s13-13.73,12.84-24.72c-.16-10.99-3.69-25.08-13.81-25.62-10.12-.54-12.77,10.46-15.26,19.95-2.49,9.49,2.19,20.2,6.82,24.84,4.64,4.64,5.26,8.91,5.26,8.91l-2.02,42.64-.83,8.94-26.15-.58-.09-2.49.44.46-3.49-36.6s1.1-6.93,6-12.03c4.9-5.1,3.76-8.67,3.15-14.21-.61-5.53-2.14-33.95-2.14-33.95,0,0-1.81-1.82-2.45,0-.64,1.82.51,12.62-1.49,15.04-2,2.42-2.28-16.19-4.69-15.85-2.42.35-1.41,24.38-2.51,25.38-1.1,1-3.89-24.68-6.31-24.57,0,0-3.57,35.87-2.85,39.69.73,3.82,7.42,12.75,8.97,18.44,1.06,3.89.25,21.49-.37,32.23l-.31.03-1.11,9.76s-52.16,3.41-57.93,7.57c0,0,78.47-7.97,139.99-2.95l-34.8-3.85Z"/>
            <path class="cls-12" d="M188.54,166.54l19.95,2.21c-6.35-.92-13.04-1.64-19.95-2.21Z"/>
          </g>
          <path class="cls-3" d="M152.88,161.93c-.08-3.47-3.52-50.48-3.52-50.48,0,0-.14-4.82,2.71-7.28,3.13-2.7,9.53-11.8,9.53-23.48s-4.69-24.81-14.5-24.81-14.5,13.34-14.5,24.81,6.4,20.78,9.53,23.48c2.84,2.45,2.71,7.28,2.71,7.28,0,0-2.11,46.51-2.2,49.98"/>
          <path class="cls-3" d="M147.89,101.25s15.19-12.31,8.11-31.36"/>
        </g>
        <g>
          <path class="cls-5" d="M115.76,161.19s-3.04-36.93-3.18-39.21c-.15-2.28.93-5.23,3.1-8.02,2.14-2.76,5.96-7.75,6.05-12.17,0-.1,0-.21,0-.31l-2.26-42.13"/>
          <path class="cls-5" d="M101.56,59.34l-2.26,42.13c0,.1,0,.21,0,.31.09,4.42,3.91,9.4,6.05,12.17,2.16,2.8,3.25,5.75,3.1,8.02-.15,2.28-1.08,39.21-1.08,39.21"/>
          <g>
            <line class="cls-5" x1="107.36" y1="102.64" x2="107.36" y2="59.72"/>
            <line class="cls-5" x1="113.66" y1="102.64" x2="113.66" y2="59.72"/>
          </g>
        </g>
        <path class="cls-4" d="M152.88,161.93c34.66,2.13,62.21,8.12,62.21,8.12"/>
        <path class="cls-4" d="M116.6,161.43c4.26-.15,8.6-.24,13-.24s8.76.09,13.04.24"/>
        <path class="cls-4" d="M45.98,170.05s26.73-6.09,61.38-8.17"/>
      </g>
      <path class="cls-6" d="M121.73,24.48c-21.43,7.94-25.61,28.74-25.61,28.74,0,0-16.86-8.27-27.59-4.43"/>
      <path class="cls-2" d="M82.24,156.4s-17.79,2.95-30.43,7.87"/>
      <path class="cls-2" d="M174.63,154.84s18.42,2.57,29.96,7.09"/>
      <line class="cls-2" x1="86.69" y1="154.84" x2="96.75" y2="153.03"/>
      <path class="cls-8" d="M220.21,94.32s-6.27,22.38-35.76,23.22"/>
    </g>
    <path class="cls-1" d="M107.35,10.26c0,1.92-1.56,3.48-3.48,3.48s-3.48-1.56-3.48-3.48,1.56-3.48,3.48-3.48,3.48,1.56,3.48,3.48Z"/>
    <path class="cls-1" d="M223.69,131.99c0,1.92-1.56,3.48-3.48,3.48s-3.48-1.56-3.48-3.48,1.56-3.48,3.48-3.48,3.48,1.56,3.48,3.48Z"/>
    <path class="cls-1" d="M45.98,154.84c0,1.92-1.55,3.48-3.48,3.48s-3.48-1.56-3.48-3.48,1.56-3.48,3.48-3.48,3.48,1.56,3.48,3.48Z"/>
  </g>
</svg>