<svg width="107" height="92" viewBox="0 0 107 92"  fill="none" xmlns="http://www.w3.org/2000/svg">
 
<path d="M5.47535 71.8847C0.871798 75.5922 6.24912 78.292 8.50016 80.0001C19.0002 85.0001 39.0002 90.0639 55.5 90.0001C70.5002 89.9421 92.0719 86.1968 98.5 82.0001C102.176 77.7971 100.272 76.5998 100.272 76.5998C100.272 76.5998 50.1216 88.3567 5.47535 71.8847Z" fill="#BE8B40"/>
<path d="M8.10298 63.2383C7.47268 62.9561 0.444218 67.0208 4.8698 73.1705C6.11285 76.3219 48.5722 85.5538 59.0426 83.9594C69.513 82.3651 99.8989 80.0211 100.404 76.7288C100.909 73.4364 100.948 65.6629 100.948 65.6629C100.948 65.6629 47.7195 81.0453 8.10298 63.2383Z" fill="#59361F"/>
<path d="M7.14067 54.2578C1.04046 54.9037 2.02059 61.286 3.53559 62.4912C5.05059 63.6965 12.1533 63.4608 10.5456 68.3834C8.93793 73.306 10.2935 79.2615 13.307 76.2684C16.3205 73.2754 22.1441 70.853 22.4565 73.6554C22.7689 76.4579 28.2905 80.8604 29.6299 78.4076C30.9693 75.9548 35.0301 82.8218 38.0032 81.1869C40.9763 79.552 44.3923 75.9242 45.1194 77.7927C45.8465 79.6611 58.7702 89.8656 59.9073 81.985C61.0444 74.1044 68.2319 79.8449 73.0754 79.1961C77.9189 78.5473 84.3761 80.9476 85.0034 77.7527C85.6307 74.5578 91.7827 77.2139 93.6637 79.702C95.5447 82.1901 97.9696 82.82 99.1036 79.5847C100.238 76.3494 96.9494 72.7596 96.9494 72.7596C96.9494 72.7596 102.476 77.8441 103.674 74.6066C104.872 71.3691 103.952 67.453 103.567 66.4467C103.181 65.4404 102.869 62.6379 104.209 62.2701C105.548 61.9023 103.361 56.3892 100.681 57.1555C98.002 57.9218 7.14067 54.2578 7.14067 54.2578Z" fill="#86B240"/>
<path d="M19.5608 20.2045C19.5608 20.2045 35.4558 66.1811 43.1918 77.8511C47.5722 84.4619 49.2684 78.9307 54.4279 75.4809C59.5873 72.0311 73.0861 66.5096 73.6578 62.504C74.2294 58.4985 30.8977 19.9925 30.8977 19.9925L19.5608 20.2045Z" fill="#FEEA59"/>
<path d="M31.5709 59.9672C27.5069 59.7844 10.3126 55.5595 8.69858 56.527C7.08458 57.4944 5.68904 60.0871 9.66583 63.1091C14.0447 66.4468 36.2685 72.1015 38.275 70.1011C40.2816 68.1007 44.7982 60.5413 31.5709 59.9672Z" fill="#E56627"/>
<path d="M63.9814 61.2641C60.0947 61.9185 43.1399 61.3034 41.728 62.5782C40.3161 63.853 39.3792 66.683 43.5855 68.8308C48.2288 71.1937 70.1627 72.1748 71.7527 69.8131C73.3426 67.4513 76.6401 59.1365 63.9814 61.2641Z" fill="#E56627"/>
<path d="M90.5467 58.8211C87.6339 59.8791 74.4619 61.0968 73.5505 62.4694C72.6391 63.8421 72.3237 66.7274 75.8838 68.3685C79.8093 70.1811 96.8857 68.7913 97.7751 66.3156C98.6645 63.8399 100.012 55.3925 90.5467 58.8211Z" fill="#E56627"/>
<path d="M9.01602 43.7534C8.39256 43.4298 5.10906 53.7372 6.35514 57.3202C7.60123 60.9032 49.5149 69.2716 59.9769 67.5105C70.439 65.7494 100.831 63.229 101.333 59.4941C101.835 55.7593 101.873 46.9351 101.873 46.9351C101.873 46.9351 48.6507 64.1501 9.01602 43.7534Z" fill="#59361F"/>
<path d="M8.06041 34.7793C1.95307 35.4254 2.93314 41.8001 4.4482 43.0129C5.96325 44.2258 13.0658 43.9749 11.4654 48.9049C9.86487 53.8349 11.2132 59.7753 14.2196 56.7825C17.2259 53.7897 23.0566 51.367 23.3762 54.1693C23.6957 56.9715 29.2102 61.3742 30.5496 58.9214C31.889 56.4686 35.9498 63.3356 38.9229 61.7007C41.896 60.0658 45.3548 56.429 46.0391 58.2989C46.7234 60.1688 59.6899 70.3718 60.8341 62.491C61.9783 54.6101 69.1515 60.3511 73.9953 59.7406C78.8391 59.1301 85.3031 61.4842 85.9233 58.2895C86.5435 55.0948 92.7097 57.7505 94.5907 60.2463C96.4718 62.742 98.8966 63.3642 100.023 60.1215C101.15 56.8788 97.8764 53.2962 97.8764 53.2962C97.8764 53.2962 103.403 58.3807 104.601 55.1432C105.799 51.9057 104.879 47.9896 104.487 46.9912C104.094 45.9928 103.789 43.1824 105.128 42.8069C106.468 42.4314 104.288 36.9258 101.601 37.6923C98.9147 38.4589 8.06041 34.7793 8.06041 34.7793Z" fill="#86B240"/>
<path d="M12.6365 39.7585C12.6365 39.7585 76.1676 62.0119 78.8912 69.6069C81.6149 77.202 84.6567 67.0485 87.4005 61.2285C90.1443 55.4085 99.033 43.1078 97.5506 39.4179C96.0681 35.728 39.6883 28.3074 39.6883 28.3074L12.6365 39.7585Z" fill="#FEEA59"/>
<path d="M96.9374 34.4487C96.9374 34.4487 30.7765 49.5236 27.0359 56.7651C23.2954 64.0067 21.6728 53.5837 19.7738 47.5088C17.8748 41.4339 10.7779 28.2473 12.7669 24.7528C14.7558 21.2583 71.6822 20.0673 71.6822 20.0673L96.9374 34.4487Z" fill="#FEEA59"/>
<path d="M32.4839 40.4813C28.42 40.3062 11.2257 36.0736 9.61166 37.0411C7.99766 38.0085 6.60212 40.6012 10.5718 43.6311C14.9577 46.9609 37.1815 52.6156 39.181 50.6154C41.1804 48.6153 45.7115 41.0784 32.4839 40.4813Z" fill="#E56627"/>
<path d="M64.8947 41.7783C61.0079 42.4326 44.0603 41.8173 42.6412 43.0924C41.2222 44.3675 40.2924 47.1971 44.4987 49.345C49.142 51.7079 71.076 52.689 72.673 50.327C74.2701 47.965 77.5533 39.6506 64.8947 41.7783Z" fill="#E56627"/>
<path d="M92.3909 40.7902C89.478 41.8405 76.3061 43.0582 75.3947 44.4385C74.4833 45.8188 74.1679 48.6965 77.728 50.3376C81.6535 52.1501 98.7299 50.768 99.6193 48.2923C100.509 45.8166 101.87 37.3534 92.3909 40.7902Z" fill="#E56627"/>
<path d="M103.76 34.9586C102.876 47.445 80.347 49.1212 53.5257 47.6329C26.7044 46.1447 5.74122 42.0719 6.62466 29.5854C6.66048 29.0904 6.73344 28.5982 6.84282 28.1139C7.6366 39.4851 27.9767 43.2956 53.7409 44.7204C79.505 46.1452 101.3 44.6245 103.764 33.479C103.794 33.9709 103.792 34.4652 103.76 34.9586Z" fill="#AA7833"/>
<path d="M103.119 33.2644C103.075 33.4416 103.032 33.6189 102.974 33.7965C101.707 21.4065 81.6711 4.48939 56.331 2.77306C30.9909 1.05672 9.48113 15.1468 6.3376 27.2344C6.31396 27.0623 6.30031 26.8885 6.29674 26.714C8.87685 14.5008 30.6669 -0.0936486 56.4351 1.65167C82.2034 3.39699 102.459 20.8228 103.119 33.2644Z" fill="#D1A065"/>
<path d="M103.79 34.0707C100.652 44.7325 78.6401 47.3528 53.3 45.6364C27.9598 43.9201 6.61248 39.7988 6.33747 27.2344C9.481 15.1469 31.0121 1.05632 56.3523 2.77265C81.6924 4.48898 102.524 21.6731 103.79 34.0707Z" fill="#BE8B40"/>
<path d="M19.3942 24.4446C20.6412 23.641 21.4018 22.5291 21.093 21.9612C20.7841 21.3933 19.5228 21.5844 18.2757 22.388C17.0286 23.1916 16.2681 24.3035 16.5769 24.8714C16.8857 25.4393 18.1471 25.2482 19.3942 24.4446Z" fill="#CCA36C"/>
<path d="M28.2519 15.1958C29.499 14.3922 30.2596 13.2804 29.9507 12.7124C29.6419 12.1445 28.3806 12.3356 27.1335 13.1392C25.8864 13.9428 25.1258 15.0547 25.4347 15.6226C25.7435 16.1905 27.0048 15.9994 28.2519 15.1958Z" fill="#CCA36C"/>
<path d="M37.8184 20.1685C38.8872 19.0552 39.4184 17.7809 39.0049 17.3222C38.5914 16.8636 37.3898 17.3942 36.321 18.5075C35.2522 19.6207 34.721 20.895 35.1345 21.3537C35.5479 21.8124 36.7496 21.2817 37.8184 20.1685Z" fill="#CCA36C"/>
<path d="M45.3478 10.1513C46.343 9.35623 46.9052 8.35319 46.6035 7.91097C46.3018 7.46874 45.2505 7.75479 44.2553 8.54987C43.2601 9.34496 42.6979 10.348 42.9996 10.7902C43.3013 11.2324 44.3526 10.9464 45.3478 10.1513Z" fill="#CCA36C"/>
<path d="M52.8 25.1254C53.4308 23.6032 53.5136 22.1735 52.9851 21.932C52.4565 21.6906 51.5167 22.7288 50.886 24.251C50.2553 25.7732 50.1724 27.2029 50.701 27.4444C51.2295 27.6858 52.1693 26.6476 52.8 25.1254Z" fill="#CCA36C"/>
<path d="M72.3753 11.0178C72.6114 10.4994 71.9377 9.64217 70.8705 9.10307C69.8034 8.56397 68.747 8.54718 68.5109 9.06557C68.2749 9.58397 68.9486 10.4412 70.0157 10.9803C71.0828 11.5194 72.1393 11.5362 72.3753 11.0178Z" fill="#CCA36C"/>
<path d="M65.6938 14.9588C66.0811 14.5883 65.7379 13.4907 64.9272 12.5074C64.1165 11.524 63.1453 11.0273 62.7579 11.3978C62.3706 11.7683 62.7138 12.8659 63.5245 13.8492C64.3353 14.8326 65.3065 15.3293 65.6938 14.9588Z" fill="#CCA36C"/>
<path d="M53.8282 10.571C54.7799 9.70258 55.2868 8.66142 54.9605 8.24556C54.6342 7.8297 53.5982 8.19662 52.6466 9.06508C51.695 9.93355 51.1881 10.9747 51.5144 11.3905C51.8407 11.8064 52.8766 11.4395 53.8282 10.571Z" fill="#CCA36C"/>
<path d="M68.8211 25.6286C69.2799 25.1896 68.8733 23.8894 67.9128 22.7244C66.9523 21.5594 65.8018 20.9708 65.3429 21.4098C64.8841 21.8488 65.2908 23.149 66.2512 24.314C67.2117 25.479 68.3623 26.0675 68.8211 25.6286Z" fill="#CCA36C"/>
<path d="M82.9944 33.1148C83.4532 32.6758 83.0466 31.3756 82.0861 30.2106C81.1256 29.0456 79.9751 28.457 79.5162 28.896C79.0574 29.335 79.464 30.6352 80.4245 31.8002C81.385 32.9652 82.5356 33.5537 82.9944 33.1148Z" fill="#CCA36C"/>
<path d="M58.9118 38.2062C59.4799 38.1228 59.7998 36.7152 59.6264 35.0622C59.4529 33.4093 58.8518 32.1369 58.2837 32.2203C57.7156 32.3037 57.3957 33.7113 57.5691 35.3643C57.7426 37.0172 58.3437 38.2896 58.9118 38.2062Z" fill="#CCA36C"/>
<path d="M37.5441 32.8535C38.5869 31.695 39.0848 30.3955 38.6561 29.9511C38.2274 29.5066 37.0345 30.0855 35.9916 31.244C34.9488 32.4026 34.4509 33.702 34.8796 34.1465C35.3083 34.5909 36.5012 34.012 37.5441 32.8535Z" fill="#CCA36C"/>
<path d="M93.4516 25.2715C93.8917 24.8048 93.428 23.5334 92.416 22.4318C91.4039 21.3303 90.2267 20.8157 89.7866 21.2825C89.3465 21.7492 89.8102 23.0206 90.8223 24.1221C91.8343 25.2237 93.0115 25.7383 93.4516 25.2715Z" fill="#CCA36C"/>
<path d="M81.864 20.7045C82.3041 20.2377 81.8404 18.9664 80.8283 17.8648C79.8163 16.7633 78.6391 16.2487 78.199 16.7155C77.7589 17.1822 78.2226 18.4536 79.2346 19.5551C80.2467 20.6567 81.4239 21.1713 81.864 20.7045Z" fill="#CCA36C"/>
   </svg>
